<svg width="11" height="12" viewBox="0 0 11 12" fill="none" xmlns="http://www.w3.org/2000/svg">
<path fill-rule="evenodd" clip-rule="evenodd" d="M3.02844 0.698547H7.50109C9.24991 0.698547 10.4209 1.92582 10.4209 3.75202V7.96673C10.4209 9.78829 9.24991 11.0161 7.50109 11.0161H3.02844C1.27962 11.0161 0.103424 9.78829 0.103424 7.96673V3.75202C0.103424 1.92582 1.27962 0.698547 3.02844 0.698547ZM7.10902 7.8228C7.23799 7.8228 7.36696 7.75573 7.43918 7.63192C7.55268 7.45085 7.49077 7.21355 7.30506 7.10057L5.46854 6.00691V3.62305C5.46854 3.41206 5.2983 3.23614 5.08163 3.23614C4.87012 3.23614 4.69472 3.41206 4.69472 3.62305V6.22874C4.69472 6.36287 4.76694 6.49184 4.8856 6.5589L6.90783 7.76605C6.96974 7.80732 7.04196 7.8228 7.10902 7.8228Z" fill="#FFC30D"/>
</svg>
